<?xml version="1.0" encoding="UTF-8"?>
<svg id="logos" xmlns="http://www.w3.org/2000/svg" version="1.1" viewBox="0 0 76.7 53.8">
  <!-- Generator: Adobe Illustrator 29.3.1, SVG Export Plug-In . SVG Version: 2.1.0 Build 151)  -->
  <defs>
    <style>
      .st0 {
        fill: #21001f;
      }
    </style>
  </defs>
  <polygon class="st0" points="65 10.2 62.3 11.8 73.9 31.1 76.7 29.5 65 10.2"/>
  <polygon class="st0" points="73.9 31.1 71.1 32.8 74.5 38.3 77.2 36.6 73.9 31.1"/>
  <polygon class="st0" points="74.5 38.3 71.7 40 73.3 42.7 76.1 41.1 74.5 38.3"/>
  <polygon class="st0" points="61.1 53.8 75.2 45.8 73.3 42.7 59.4 51 61.1 53.8"/>
  <polygon class="st0" points="53.3 47.2 56.6 52.7 59.4 51 56.1 45.5 53.3 47.2"/>
  <polygon class="st0" points="47.2 43.3 50.5 49 53.3 47.2 50 41.7 47.2 43.3"/>
  <polygon class="st0" points="43.5 41.8 40.3 36.6 35.8 36.4 37.1 34.4 34.4 32.7 33 34.8 31.2 33.7 38.3 22.3 45 33.4 42.9 34.6 41.6 32.5 38.9 34.2 40.5 36.9 42.6 35.7 43.9 37.8 46.6 36.1 48.3 38.9 51.1 37.2 40.2 19.2 42.2 16 47.4 24.6 50.1 22.8 45.3 14.9 47.9 13.4 52.8 21.4 55.5 19.7 52.2 14.2 55.1 12.5 58.1 17.8 61.1 16 59.7 13.6 62.4 12 60.7 9.2 58 10.9 56.2 8 53.4 9.6 50.5 11.4 49 8.8 46.2 10.5 46.2 10.5 45.3 11 48.3 6.2 45.9 4.9 47.8 1.9 44.7 0 42.7 3 45.5 4.8 25.1 37.4 27.8 39.1 29.5 36.4 32.2 38.1 33.6 36 35.4 37.1 35.5 36.9 32.6 42.1 30.5 40.8 28.8 43.6 31.6 45.3 33.2 42.6 35.3 43.8 38 39 40.9 43.7 42.9 42.4 44.5 45 47.2 43.3 45.6 40.6 43.5 41.8"/>
  <polygon class="st0" points="11.6 10.1 -.4 29.2 2.4 30.9 14.3 11.8 11.6 10.1"/>
  <path class="st0" d="M17,13.7l-1.6,2.6,2.7,1.7,3.3-5.3,2.9,1.8-3.4,5.4,2.7,1.7,5-7.9,2.5,1.6-4.9,8,2.7,1.7L42.7,2.9l-3-1.8-1.2,2-1.5-2.4-3,1.9-1.5-2.5-2.9,1.8,1.5,2.8-2.5,1.5,3.4,5.6-1.9-1.2-2.3-1.5-1.6,2.5-2.9-1.8h0l-2.7-1.7-1.8,2.9-2.7-1.7-1.7,2.7,2.7,1.7h0ZM31.4,4.7l2.8-1.8,2.2,3.6-1.9,3.1-3-5Z"/>
  <polygon class="st0" points="2.4 30.9 -1 36.4 1.7 38.1 5.1 32.6 2.4 30.9"/>
  <polygon class="st0" points="1.7 38.1 0 40.8 2.7 42.5 4.4 39.8 1.7 38.1"/>
  <polygon class="st0" points="1 45.2 14.8 53.8 16.5 51.1 2.7 42.5 1 45.2"/>
  <polygon class="st0" points="16.5 51.1 19.3 52.8 22.7 47.3 19.9 45.6 16.5 51.1"/>
  <polygon class="st0" points="22.7 47.3 25.4 49 28.8 43.6 26.1 41.9 22.7 47.3"/>
</svg>