<?xml version="1.0" encoding="UTF-8"?>
<svg id="logos" xmlns="http://www.w3.org/2000/svg" version="1.1" viewBox="0 0 133.4 117.2">
  <!-- Generator: Adobe Illustrator 29.3.1, SVG Export Plug-In . SVG Version: 2.1.0 Build 151)  -->
  <defs>
    <style>
      .st0, .st1 {
        fill: #21001f;
      }

      .st1 {
        stroke: #21001f;
        stroke-miterlimit: 10;
      }
    </style>
  </defs>
  <g>
    <polygon class="st0" points="117.3 30.2 113.3 32.5 129.5 60 133.4 57.7 117.3 30.2"/>
    <polygon class="st0" points="129.5 60 125.4 62.3 130.1 70.1 134.1 67.8 129.5 60"/>
    <polygon class="st0" points="130.1 70.1 126.2 72.4 128.5 76.3 132.4 74.1 130.1 70.1"/>
    <polygon class="st0" points="111 91.8 131.1 80.7 128.5 76.3 108.7 87.9 111 91.8"/>
    <polygon class="st0" points="100.1 82.3 104.7 90.2 108.7 87.9 104 80 100.1 82.3"/>
    <polygon class="st0" points="91.6 76.8 96.1 84.8 100.1 82.3 95.5 74.5 91.6 76.8"/>
    <polygon class="st0" points="86.3 74.6 81.8 67.1 75.5 66.9 77.4 64 73.5 61.5 71.6 64.5 69 62.9 79.3 46.8 88.5 62.6 85.6 64.4 83.8 61.4 79.9 63.7 82.2 67.6 85.1 65.9 86.9 68.9 90.9 66.6 93.2 70.6 97.1 68.3 82 42.5 84.9 38.1 92.1 50.3 95.9 47.9 89.3 36.6 93 34.4 99.7 45.8 103.7 43.5 99.1 35.7 103.2 33.3 107.4 40.8 111.7 38.3 109.6 34.9 113.5 32.7 111.2 28.8 107.3 31 104.8 26.9 100.9 29.2 96.7 31.6 94.6 28 90.6 30.3 90.6 30.3 89.3 31.1 93.7 24.2 90.3 22.4 93.1 18.3 88.7 15.4 85.8 19.7 89.8 22.2 60.3 68 64.2 70.5 66.6 66.7 70.4 69.2 72.4 66.2 74.9 67.8 75.1 67.5 70.8 74.8 68 73 65.5 76.8 69.4 79.3 71.8 75.5 74.6 77.3 78.6 70.6 82.6 77.3 85.5 75.4 87.6 79.1 91.6 76.8 89.3 72.9 86.3 74.6"/>
    <polygon class="st0" points="41.7 29.2 24.5 56 28.3 58.5 45.5 31.7 41.7 29.2"/>
    <path class="st0" d="M49.2,34.3l-2.3,3.6,3.8,2.5,4.8-7.5,4.1,2.6-4.9,7.6,3.8,2.4,7.2-11.1,3.5,2.2-7,11.2,3.8,2.4,19.8-30.8-4.2-2.7-1.7,2.8-2-3.5-4.3,2.7-2.1-3.6-4.2,2.5,2,4-3.6,2.1,4.7,7.9-2.7-1.7-3.3-2.1-2.3,3.5-4.1-2.6h0l-3.8-2.5-2.6,4-3.8-2.5-2.5,3.8,3.8,2.5h0v.3ZM69.9,21.9l4-2.4,3,5.2-2.8,4.4s-4.2-7.2-4.2-7.2Z"/>
    <polygon class="st0" points="28.3 58.5 23.4 66.2 27.2 68.6 32.2 61 28.3 58.5"/>
    <polygon class="st0" points="27.2 68.6 24.8 72.4 28.6 74.9 31.1 71.1 27.2 68.6"/>
    <polygon class="st0" points="26.2 78.7 45.5 91.1 48 87.2 28.6 74.9 26.2 78.7"/>
    <polygon class="st0" points="48 87.2 51.8 89.7 56.8 82 52.9 79.6 48 87.2"/>
    <polygon class="st0" points="56.8 82 60.6 84.5 65.5 76.8 61.7 74.4 56.8 82"/>
  </g>
  <g>
    <path class="st1" d="M0,19V.5h2.6v15.9h9.2v2.6H0Z"/>
    <path class="st1" d="M16.5,19v-1.3h-1.3v-1.3h-1.3v-1.3h-1.3V4.4h1.3v-1.3h1.3v-1.3h1.3V.5h7.9v1.3h1.3v1.3h1.3v1.3h1.3v10.6h-1.3v1.3h-1.3v1.3h-1.3v1.3h-7.9ZM23.1,16.3v-1.3h1.3v-1.3h1.3v-7.9h-1.3v-1.3h-1.3v-1.3h-5.3v1.3h-1.3v1.3h-1.3v7.9h1.3v1.3h1.3v1.3h5.3Z"/>
    <path class="st1" d="M35,19v-1.3h-1.3v-1.3h-1.3v-1.3h-1.3V4.4h1.3v-1.3h1.3v-1.3h1.3V.5h7.9v1.3h1.3v1.3h1.3v1.3h1.3v2.6h-2.7v-1.3h-1.3v-1.3h-1.3v-1.3h-5.3v1.3h-1.3v1.3h-1.3v7.9h1.3v1.3h1.3v1.3h5.3v-1.3h1.3v-1.3h1.3v-1.3h-4v-2.6h6.6v9.2h-2.7v-2.6h-1.3v1.3h-1.3v1.3h-6.6.2Z"/>
    <path class="st1" d="M0,43v-18.5h2.6v18.5H0Z"/>
    <path class="st1" d="M5.3,43v-18.5h4v2.7h1.3v2.7h1.3v2.6h1.3v2.7h1.3v2.6h1.3v-13.2h2.6v18.5h-4v-2.6h-1.3v-2.7h-1.3v-2.6h-1.3v-2.7h-1.3v-2.6h-1.3v13.2h-2.6Z"/>
  </g>
  <g>
    <path class="st1" d="M0,117.2v-21.2h3v18.2h10.6v3H0Z"/>
    <path class="st1" d="M18.9,117.2v-1.5h-1.5v-1.5h-1.5v-1.5h-1.5v-12.1h1.5v-1.5h1.5v-1.5h1.5v-1.5h9.1v1.5h1.5v1.5h1.5v1.5h1.5v12.1h-1.5v1.5h-1.5v1.5h-1.5v1.5h-9.1ZM26.5,114.2v-1.5h1.5v-1.5h1.5v-9.1h-1.5v-1.5h-1.5v-1.5h-6.1v1.5h-1.5v1.5h-1.5v9.1h1.5v1.5h1.5v1.5h6.1Z"/>
    <path class="st1" d="M40.2,117.2v-1.5h-1.5v-1.5h-1.5v-1.5h-1.5v-12.1h1.5v-1.5h1.5v-1.5h1.5v-1.5h9.1v1.5h1.5v1.5h1.5v1.5h1.5v3h-3v-1.5h-1.5v-1.5h-1.5v-1.5h-6.1v1.5h-1.5v1.5h-1.5v9.1h1.5v1.5h1.5v1.5h6.1v-1.5h1.5v-1.5h1.5v-1.5h3v3h-1.5v1.5h-1.5v1.5h-1.5v1.5h-9.1Z"/>
    <path class="st1" d="M56.8,117.2v-21.2h3v7.6h1.5v-1.5h1.5v-1.5h1.5v-1.5h1.5v-1.5h1.5v-1.5h3.8v1.5h-1.5v1.5h-1.5v1.5h-1.5v1.5h-1.5v1.5h-1.5v1.5h-1.5v3h1.5v1.5h1.5v1.5h1.5v1.5h1.5v1.5h1.5v1.5h1.5v1.5h-3.8v-1.5h-1.5v-1.5h-1.5v-1.5h-1.5v-1.5h-1.5v-1.5h-1.5v7.6h-3Z"/>
    <path class="st1" d="M84.8,117.2v-1.5h-1.5v-1.5h-1.5v-1.5h-1.5v-12.1h1.5v-1.5h1.5v-1.5h1.5v-1.5h9.1v1.5h1.5v1.5h1.5v1.5h1.5v12.1h-1.5v1.5h-1.5v1.5h-1.5v1.5h-9.1ZM92.4,114.2v-1.5h1.5v-1.5h1.5v-9.1h-1.5v-1.5h-1.5v-1.5h-6.1v1.5h-1.5v1.5h-1.5v9.1h1.5v1.5h1.5v1.5h6.1Z"/>
    <path class="st1" d="M104.5,117.2v-1.5h-1.5v-1.5h-1.5v-18.2h3v16.7h1.5v1.5h6.1v-1.5h1.5v-16.7h3v18.2h-1.5v1.5h-1.5v1.5h-9.1Z"/>
    <path class="st1" d="M125,117.2v-18.2h-6.1v-3h15.1v3h-6.1v18.2h-3,0Z"/>
  </g>
</svg>